<svg xmlns="http://www.w3.org/2000/svg" viewBox="0 0 400 260" width="400" height="260">
  <defs>
    <radialGradient id="ball" cx="40%" cy="35%" r="70%">
      <stop offset="0%" stop-color="#ff6b6b"/>
      <stop offset="55%" stop-color="#c62828"/>
      <stop offset="100%" stop-color="#7a1414"/>
    </radialGradient>
    <linearGradient id="sky" x1="0" y1="0" x2="0" y2="1">
      <stop offset="0%" stop-color="#000010"/>
      <stop offset="100%" stop-color="#0a1030"/>
    </linearGradient>
  </defs>
  <!-- שמיים -->
  <rect width="400" height="260" fill="url(#sky)"/>
  <!-- מסלול אפור בפרספקטיבה -->
  <polygon points="176,86 224,86 470,260 -70,260" fill="#c9cace"/>
  <!-- גבולות כחולים -->
  <polygon points="176,86 -70,260 -140,260 150,86" fill="#123a9c"/>
  <polygon points="224,86 470,260 540,260 250,86" fill="#123a9c"/>
  <!-- זוהר בקצה המסלול -->
  <ellipse cx="200" cy="88" rx="30" ry="7" fill="#dfe8ff" opacity="0.9"/>
  <!-- מכשולים רחוקים -->
  <rect x="150" y="92" width="7" height="12" fill="#c98a3a"/>
  <rect x="244" y="92" width="8" height="12" fill="#9a7040"/>
  <ellipse cx="176" cy="108" rx="9" ry="3" fill="#e0c020"/>
  <!-- חרוט ירוק -->
  <polygon points="200,120 182,168 218,168" fill="#0b5d0b"/>
  <!-- כדור אדום -->
  <circle cx="200" cy="196" r="36" fill="url(#ball)"/>
</svg>
